<svg xmlns="http://www.w3.org/2000/svg" viewBox="0 0 512 512" role="img" aria-label="엘리가오더">
  <rect width="512" height="512" rx="112" fill="#f6f0e6"/>
  <rect x="56" y="56" width="400" height="400" rx="96" fill="#fee500"/>
  <!-- steam -->
  <path fill="none" stroke="#191600" stroke-width="18" stroke-linecap="round"
    d="M188 148c12-22 12-44 0-66M256 136c12-22 12-44 0-66M324 148c12-22 12-44 0-66"/>
  <!-- cup body -->
  <path fill="#191600" d="M156 196c0-18 14-32 32-32h136c18 0 32 14 32 32v100c0 50-40 90-90 90h-20c-50 0-90-40-90-90V196z"/>
  <!-- handle -->
  <path fill="none" stroke="#191600" stroke-width="28" stroke-linecap="round"
    d="M356 228h28c28 0 50 22 50 50s-22 50-50 50h-20"/>
  <!-- spoon + fork -->
  <g stroke="#191600" stroke-width="18" stroke-linecap="round" fill="none">
    <path d="M348 318l52 52"/>
    <path d="M382 296v40"/>
    <path d="M404 304l16 16"/>
    <path d="M418 292l16 16"/>
  </g>
</svg>
