<svg xmlns="http://www.w3.org/2000/svg" viewBox="0 0 32 32">
  <rect width="32" height="32" rx="8" fill="#fee500"/>
  <!-- steam -->
  <path fill="none" stroke="#191600" stroke-width="1.4" stroke-linecap="round"
    d="M11.2 8.2c.8-1.3.8-2.6 0-3.9M16 7.4c.8-1.3.8-2.6 0-3.9M20.8 8.2c.8-1.3.8-2.6 0-3.9"/>
  <!-- cup -->
  <path fill="#191600" d="M9.2 11.2c0-1 .8-1.8 1.8-1.8h8.2c1 0 1.8.8 1.8 1.8v5.6c0 2.7-2.2 4.9-4.9 4.9h-.2c-2.7 0-4.9-2.2-4.9-4.9v-5.6z"/>
  <path fill="none" stroke="#191600" stroke-width="1.6" stroke-linecap="round"
    d="M21 13.2h1.4c1.5 0 2.7 1.2 2.7 2.7s-1.2 2.7-2.7 2.7H21"/>
  <!-- spoon + fork -->
  <path fill="none" stroke="#191600" stroke-width="1.3" stroke-linecap="round"
    d="M22.2 20.4l3.2 3.2M24.2 18.8v2.4M25.6 19.4l.9.9M26.4 18.6l.9.9"/>
</svg>
